<?xml version="1.0" encoding="UTF-8"?>
<svg width="155px" height="31px" viewBox="0 0 155 31" version="1.1" xmlns="http://www.w3.org/2000/svg" xmlns:xlink="http://www.w3.org/1999/xlink">
    <!-- Generator: sketchtool 55.1 (78136) - https://sketchapp.com -->
    <title>AA74B616-6E61-4F55-93CF-30ABA022EA56</title>
    <desc>Created with sketchtool.</desc>
    <g id="Page-1" stroke="none" stroke-width="1" fill="none" fill-rule="evenodd">
        <!-- <g id="Landingpage-2" transform="translate(-59.000000, -26.000000)" fill="#EB6350"> -->
        <g id="Landingpage-2" transform="translate(-59.000000, -26.000000)" fill="#EB6350">
            <g id="LOGO" transform="translate(59.000000, 26.000000)">
                <path d="M8.49372842,31 C5.39598085,31 2.47075635,29.7000722 0.468721966,27.4341901 C-0.238239237,26.6337546 -0.133575241,25.4365878 0.702203188,24.7598326 C1.538365,24.0830775 2.78896557,24.1829025 3.49592677,24.983338 C4.74307687,26.395202 6.56492049,27.2048126 8.49372842,27.2048126 C11.7593984,27.2048126 14.5351029,24.884614 14.9748451,21.7992122 L15.0354198,20.8828034 L15.0354198,2.89777718 C15.0354198,1.84961403 15.9229552,1 17.0179016,1 C18.1124647,1 19,1.84961403 19,2.89777718 L19,20.9426251 C19,20.9822615 18.9988498,21.0222649 18.9961662,21.0622683 L18.9275403,22.1027244 C18.9248566,22.1427278 18.9206394,22.1827312 18.9156554,22.2223677 C18.2504831,27.2264659 13.7698673,31 8.49372842,31" id="Fill-14"></path>
                <path d="M88.5062716,31 C82.7129469,31 78,26.4952684 78,20.9587064 L78,18.0412936 C78,12.5043651 82.7129469,8 88.5062716,8 C91.6044025,8 94.5292437,9.29748287 96.531278,11.5597419 C97.2382392,12.3588976 97.1335752,13.5541501 96.2977968,14.2298232 C95.461635,14.9058627 94.2110344,14.8058308 93.5040732,14.0066752 C92.2569231,12.5974351 90.4354629,11.789119 88.5062716,11.789119 C84.8993893,11.789119 81.9645802,14.5936753 81.9645802,18.0412936 L81.9645802,20.9587064 C81.9645802,24.4059583 84.8993893,27.210881 88.5062716,27.210881 C90.4350795,27.210881 92.2569231,26.4025649 93.5040732,24.9933248 C94.2110344,24.1945356 95.461635,24.0945037 96.2974134,24.7701768 C97.1335752,25.4458499 97.2378559,26.6411024 96.531278,27.4402581 C94.5288603,29.7025171 91.6040192,31 88.5062716,31" id="Fill-15"></path>
                <path d="M109.269277,16.1465509 L121.731106,16.1465509 C120.890049,13.6223036 118.414772,11.789119 115.500383,11.789119 C112.585611,11.789119 110.110335,13.6223036 109.269277,16.1465509 M115.500383,31 C109.710689,31 105,26.4952684 105,20.9587064 L105,18.0412936 C105,12.5043651 109.710689,8 115.500383,8 C121.290078,8 126,12.5043651 126,18.0412936 C126,19.0874144 125.113345,19.9356699 124.019013,19.9356699 L108.962358,19.9356699 L108.962358,20.9587064 C108.962358,24.4059583 111.895139,27.210881 115.500383,27.210881 C117.427727,27.210881 119.248549,26.4025649 120.495001,24.9933248 C121.201566,24.1945356 122.451465,24.0945037 123.286775,24.7701768 C124.122085,25.4458499 124.226691,26.6411024 123.520126,27.4402581 C121.519213,29.7025171 118.596011,31 115.500383,31" id="Fill-16"></path>
                <path d="M138.269121,16.1465509 L150.730879,16.1465509 C149.889852,13.6223036 147.414666,11.789119 144.500383,11.789119 C141.585334,11.789119 139.110148,13.6223036 138.269121,16.1465509 M144.500383,31 C138.710517,31 134,26.4952684 134,20.9587064 L134,18.0412936 C134,12.5043651 138.710517,8 144.500383,8 C150.289866,8 155,12.5043651 155,18.0412936 C155,19.0874144 154.112994,19.9356699 153.019085,19.9356699 L137.962214,19.9356699 L137.962214,20.9587064 C137.962214,24.4059583 140.895271,27.210881 144.500383,27.210881 C146.427657,27.210881 148.248413,26.4025649 149.494818,24.9933248 C150.201357,24.1945356 151.451212,24.0945037 152.286874,24.7701768 C153.122154,25.4458499 153.226755,26.6411024 152.520216,27.4402581 C150.519377,29.7025171 147.596282,31 144.500383,31" id="Fill-17"></path>
                <path d="M65,31 C63.8953781,31 63,30.1517445 63,29.1052573 L63,9.89437629 C63,8.84788912 63.8953781,8 65,8 C66.1042352,8 67,8.84788912 67,9.89437629 L67,29.1052573 C67,30.1517445 66.1042352,31 65,31" id="Fill-18"></path>
                <path d="M65,5 C63.8953781,5 63,4.07162336 63,2.92669233 L63,2.07330767 C63,0.928376644 63.8953781,0 65,0 C66.1042352,0 67,0.928376644 67,2.07330767 L67,2.92669233 C67,4.07162336 66.1042352,5 65,5" id="Fill-19"></path>
                <path d="M41.5,31 C35.7101336,31 31,26.4952684 31,20.9587064 L31,9.89437629 C31,8.84788912 31.8870055,8 32.9809152,8 C34.075208,8 34.9622135,8.84788912 34.9622135,9.89437629 L34.9622135,20.9587064 C34.9622135,24.4059583 37.8948876,27.210881 41.5,27.210881 C44.7656364,27.210881 47.5400671,24.8929266 47.9780142,21.8102597 L48.0377865,20.8989804 L48.0377865,9.89437629 C48.0377865,8.84788912 48.924792,8 50.0190848,8 C51.1129945,8 52,8.84788912 52,9.89437629 L52,20.9587064 C52,20.9982794 51.9988505,21.0378525 51.9961684,21.0774255 L51.9283499,22.1118209 C51.9256678,22.1517604 51.9218362,22.1916999 51.916472,22.2312729 C51.2539958,27.2303011 46.7760546,31 41.5,31" id="Fill-20"></path>
            </g>
        </g>
    </g>
</svg>