<?xml version="1.0" encoding="UTF-8"?>
<svg width="607px" height="925px" viewBox="0 0 607 925" version="1.1" xmlns="http://www.w3.org/2000/svg" xmlns:xlink="http://www.w3.org/1999/xlink">
    <!-- Generator: sketchtool 55.1 (78136) - https://sketchapp.com -->
    <title>78FBA800-3803-4ED6-87BA-2D19AE713356@2x</title>
    <desc>Created with sketchtool.</desc>
    <g id="Options" stroke="none" stroke-width="1" fill="none" fill-rule="evenodd">
        <g id="Landingpage-2-Copy-2" transform="translate(0.000000, -4004.000000)" fill="#D2E4E8">
            <g id="Shape/Process2" transform="translate(-308.000000, 3859.000000)">
                <path d="M671.003274,952.299065 C758.428956,952.299065 1086.12657,852.669891 1072.1799,669.01759 C1072.1799,669.01759 799.691803,396.529498 799.691803,396.529498 C799.691803,396.529498 647.211359,244.049054 647.211359,244.049054 C616.429115,243.158109 586.356843,241.391021 557.127745,239.583762 C376.443033,228.411879 227.978591,215.704946 143.199455,398.936888 C124.175537,440.053012 85.0264144,545.826425 149.875392,604.335617 C252.918517,697.305006 435.747667,573.815067 487.187747,768.483537 C516.215132,878.334 559.069544,952.299065 671.003274,952.299065 Z" id="Combined-Shape" transform="translate(593.305989, 593.149532) rotate(-135.000000) translate(-593.305989, -593.149532) "></path>
            </g>
        </g>
    </g>
</svg>