<?xml version="1.0" encoding="UTF-8"?>
<svg width="651px" height="829px" viewBox="0 0 651 829" version="1.1" xmlns="http://www.w3.org/2000/svg" xmlns:xlink="http://www.w3.org/1999/xlink">
    <!-- Generator: sketchtool 55.1 (78136) - https://sketchapp.com -->
    <title>83BD1FE2-22B6-4297-9DEB-93056C77C657@2x</title>
    <desc>Created with sketchtool.</desc>
    <defs>
        <path d="M639.628831,14.4974308 L651,14.4974308 L651.567718,422.748258 L651.567718,551.892323 C660.193906,558.459573 653.085229,576.275835 651.567717,622.445834 L651.567718,658.023384 C651.480477,658.060572 651.393264,658.097737 651.306078,658.134879 C651.381303,751.563017 651.955645,829.001374 651.2982,829.001374 C650.5964,829.001374 634.763266,829.001374 631.580978,829.001374 C508.16027,829.001374 451.200247,781.980664 442.806737,670.037784 C442.073546,666.345523 441.70695,662.340724 441.70695,658.023384 C441.70695,568.56549 369.225167,496.045538 279.814357,496.045538 C279.314689,496.045538 179.218114,496.045538 158.894581,496.045538 C71.1395273,496.045538 -3.97903932e-13,424.868548 -3.97903932e-13,337.067281 C-1.30739863e-12,157.047074 145.858402,0 325.783859,0 C405.457115,0 640,14 640,14 C640,14 639.87473,14.1678849 639.628862,14.4973884 Z" id="path-1"></path>
    </defs>
    <g id="Options" stroke="none" stroke-width="1" fill="none" fill-rule="evenodd">
        <g id="Landingpage-2-Copy-2" transform="translate(-789.000000, -3409.000000)">
            <g id="Shape/process1" transform="translate(789.000000, 3409.000000)">
                <g id="Combined-Shape-+-Rectangle-Mask">
                    <mask id="mask-2" fill="white">
                        <use xlink:href="#path-1"></use>
                    </mask>
                    <use id="Mask" fill="#DEE5E6" xlink:href="#path-1"></use>
                </g>
            </g>
        </g>
    </g>
</svg>