<?xml version="1.0" encoding="UTF-8"?>
<svg version="1.1" viewBox="0 0 72 71" xmlns="http://www.w3.org/2000/svg">
<title>assets</title>
<desc>Created with Sketch.</desc>
<g fill="none" fill-rule="evenodd" stroke-linecap="round" stroke-linejoin="round">
<g transform="translate(-1005 -562)" stroke="#2F3136" stroke-width="2">
<g transform="translate(1006 563)">
<path d="m64.108 34.056c2.845 0 5.15 2.307 5.15 5.151v23.698c0 2.844-2.305 5.151-5.15 5.151h-23.698c-2.845 0-5.152-2.307-5.152-5.151v-10.314"/>
<path d="m46.478 17.686c2.845 0 5.151 2.306 5.151 5.151v23.698c0 2.844-2.306 5.151-5.151 5.151h-23.697c-2.846 0-5.152-2.307-5.152-5.151v-12.6"/>
<path d="m5.1514 0.056h23.697c2.845 0 5.152 2.307 5.152 5.151v23.698c0 2.844-2.307 5.151-5.152 5.151h-23.697c-2.845 0-5.151-2.307-5.151-5.151v-23.698c0-2.844 2.306-5.151 5.151-5.151z"/>
</g>
</g>
</g>
</svg>
