<?xml version="1.0" encoding="UTF-8"?>
<svg width="87px" height="68px" viewBox="0 0 87 68" version="1.1" xmlns="http://www.w3.org/2000/svg" xmlns:xlink="http://www.w3.org/1999/xlink">
    <!-- Generator: Sketch 56.3 (81716) - https://sketch.com -->
    <title>chat</title>
    <desc>Created with Sketch.</desc>
    <g id="symbols" stroke="none" stroke-width="1" fill="none" fill-rule="evenodd" stroke-linecap="round" stroke-linejoin="round">
        <g id="Benefits-section" transform="translate(-555.000000, -555.000000)" stroke="#2F3136" stroke-width="2">
            <g id="chat" transform="translate(556.000000, 556.000000)">
                <path d="M2.84217094e-14,4.59 C2.84217094e-14,2.066 2.065,-4.26325641e-13 4.59,-4.26325641e-13 L34.196,-4.26325641e-13 C36.721,-4.26325641e-13 38.786,2.066 38.786,4.59 L38.786,23.236 C38.786,25.76 36.721,27.825 34.196,27.825 L30.612,27.825 L31.197,33.728 L24.16,28.943 C23.09,28.214 21.826,27.825 20.531,27.825 L4.59,27.825 C2.065,27.825 2.84217094e-14,25.76 2.84217094e-14,23.236 L2.84217094e-14,11.591" id="Stroke-55"></path>
                <path d="M84.3174,36.5089 C84.3174,33.9709 82.2414,31.8949 79.7034,31.8949 L49.9344,31.8949 C47.3974,31.8949 45.3204,33.9709 45.3204,36.5089 L45.3204,55.2559 C45.3204,57.7939 47.3974,59.8699 49.9344,59.8699 L53.5384,59.8699 L52.9504,65.8049 L60.0254,60.9929 C61.1014,60.2619 62.3734,59.8699 63.6744,59.8699 L79.7034,59.8699 C82.2414,59.8699 84.3174,57.7939 84.3174,55.2559 L84.3174,44.6719" id="Stroke-57"></path>
            </g>
        </g>
    </g>
</svg>