<?xml version="1.0" encoding="UTF-8"?>
<svg width="67px" height="67px" viewBox="0 0 67 67" version="1.1" xmlns="http://www.w3.org/2000/svg" xmlns:xlink="http://www.w3.org/1999/xlink">
    <!-- Generator: Sketch 56.3 (81716) - https://sketch.com -->
    <title>unique</title>
    <desc>Created with Sketch.</desc>
    <g id="symbols" stroke="none" stroke-width="1" fill="none" fill-rule="evenodd" stroke-linecap="round" stroke-linejoin="round">
        <g id="Benefits-section" transform="translate(-122.000000, -556.000000)" stroke="#2F3136" stroke-width="2">
            <g id="unique" transform="translate(123.000000, 557.000000)">
                <path d="M22.1205,7.2945 C31.8465,-2.4315 47.7605,-2.4315 57.4855,7.2945 C67.2105,17.0195 67.2105,32.9335 57.4855,42.6585 L42.6585,57.4845 C32.9335,67.2105 17.0195,67.2105 7.2945,57.4845 C-2.4315,47.7605 -2.4315,31.8465 7.2945,22.1205 L13.5285,15.8855" id="Stroke-35"></path>
                <path d="M18.8685,59.3042 C15.9575,58.2672 13.1945,56.5632 10.8345,54.2032 C5.6065,48.9762 3.6005,41.7742 4.9205,35.3522" id="Stroke-37"></path>
                <path d="M60.0648,28.8882 C59.5058,32.6462 57.8358,36.1932 55.0358,38.9932 L38.7588,55.2712 C34.8588,59.1702 29.5148,60.8772 24.1668,60.4462" id="Stroke-39"></path>
                <path d="M9.7669,26.2798 L26.0439,10.0028 C33.4299,2.6168 45.9959,3.0968 53.9679,11.0698 C55.8929,12.9948 57.3809,15.1878 58.4269,17.5098" id="Stroke-41"></path>
                <path d="M28.5384,54.6636 C23.6464,55.6046 18.3814,54.1916 14.6134,50.4246 C8.5854,44.3966 8.5854,34.5326 14.6134,28.5046 L26.1034,17.0146" id="Stroke-43"></path>
                <path d="M33.1722,11.5474 C38.8162,9.1684 45.6102,10.2694 50.1902,14.8484 C56.2172,20.8764 56.2172,30.7404 50.1902,36.7694 L36.5332,50.4244 C35.9682,50.9894 35.3692,51.5024 34.7432,51.9614" id="Stroke-45"></path>
                <path d="M16.5521,43.4966 C14.7161,39.6006 15.4041,34.7856 18.6131,31.5756 L25.3301,24.8586" id="Stroke-47"></path>
                <path d="M30.2542,19.9351 L32.0482,18.1411 C36.1312,14.0571 42.8142,14.0571 46.8972,18.1411 C50.9812,22.2241 50.9812,28.9071 46.8972,32.9901 L33.4622,46.4251 C30.4002,49.4881 25.8752,50.2531 22.0812,48.7221" id="Stroke-49"></path>
                <path d="M44.4447,27.2896 C44.1037,28.3176 43.5037,29.3126 42.6547,30.1616 L30.6327,42.1826 C28.1057,44.7106 24.2877,45.0286 22.1487,42.8906 C21.3717,42.1126 20.9187,41.1136 20.7777,40.0356" id="Stroke-51"></path>
                <path d="M22.8558,34.4048 L34.8768,22.3838 C37.4048,19.8558 41.2228,19.5378 43.3618,21.6758" id="Stroke-53"></path>
            </g>
        </g>
    </g>
</svg>