<?xml version="1.0" encoding="UTF-8"?>
<svg version="1.1" viewBox="0 0 67 67" xmlns="http://www.w3.org/2000/svg">
<title>unique</title>
<desc>Created with Sketch.</desc>
<g fill="none" fill-rule="evenodd" stroke-linecap="round" stroke-linejoin="round">
<g transform="translate(-122 -556)" stroke="#2F3136" stroke-width="2">
<g transform="translate(123 557)">
<path d="m22.12 7.2945c9.726-9.726 25.64-9.726 35.365 0 9.725 9.725 9.725 25.639 0 35.364l-14.827 14.826c-9.725 9.726-25.639 9.726-35.364 0-9.726-9.724-9.726-25.638 0-35.364l6.234-6.235"/>
<path d="m18.868 59.304c-2.911-1.037-5.674-2.741-8.034-5.101-5.228-5.227-7.234-12.429-5.914-18.851"/>
<path d="m60.065 28.888c-0.559 3.758-2.229 7.305-5.029 10.105l-16.277 16.278c-3.9 3.899-9.244 5.606-14.592 5.175"/>
<path d="m9.7669 26.28l16.277-16.277c7.386-7.386 19.952-6.906 27.924 1.067 1.925 1.925 3.413 4.118 4.459 6.44"/>
<path d="m28.538 54.664c-4.892 0.941-10.157-0.472-13.925-4.239-6.028-6.028-6.028-15.892 0-21.92l11.49-11.49"/>
<path d="m33.172 11.547c5.644-2.379 12.438-1.278 17.018 3.301 6.027 6.028 6.027 15.892 0 21.921l-13.657 13.655c-0.565 0.565-1.164 1.078-1.79 1.537"/>
<path d="m16.552 43.497c-1.836-3.896-1.148-8.711 2.061-11.921l6.717-6.717"/>
<path d="m30.254 19.935l1.794-1.794c4.083-4.084 10.766-4.084 14.849 0 4.084 4.083 4.084 10.766 0 14.849l-13.435 13.435c-3.062 3.063-7.587 3.828-11.381 2.297"/>
<path d="m44.445 27.29c-0.341 1.028-0.941 2.023-1.79 2.872l-12.022 12.021c-2.527 2.528-6.345 2.846-8.484 0.708-0.777-0.778-1.23-1.777-1.371-2.855"/>
<path d="m22.856 34.405l12.021-12.021c2.528-2.528 6.346-2.846 8.485-0.708"/>
</g>
</g>
</g>
</svg>
