<?xml version="1.0" encoding="UTF-8"?>
<svg width="68px" height="67px" viewBox="0 0 68 67" version="1.1" xmlns="http://www.w3.org/2000/svg" xmlns:xlink="http://www.w3.org/1999/xlink">
    <!-- Generator: Sketch 56.3 (81716) - https://sketch.com -->
    <title>design</title>
    <desc>Created with Sketch.</desc>
    <g id="symbols" stroke="none" stroke-width="1" fill="none" fill-rule="evenodd" stroke-linecap="round" stroke-linejoin="round">
        <g id="Benefits-section" transform="translate(-1007.000000, -169.000000)" stroke="#2F3136" stroke-width="2">
            <g id="design" transform="translate(1008.000000, 170.000000)">
                <polyline id="Stroke-17" points="21.0833 33.691 0.8263 13.435 14.2623 -5.54223334e-13 29.5003 15.173"></polyline>
                <polyline id="Stroke-19" points="44.5003 30.1734 65.1743 50.9114 51.7383 64.3474 35.5003 48.1734"></polyline>
                <path d="M20.6263,6.3638 L14.2623,12.7278" id="Stroke-21"></path>
                <path d="M59.5169,45.2545 L53.1529,51.6185" id="Stroke-23"></path>
                <path d="M46.7894,38.1841 L49.6174,35.3551" id="Stroke-25"></path>
                <path d="M26.9896,18.3843 L29.8186,15.5563" id="Stroke-27"></path>
                <path d="M15.553,59.0201 L-2.84217094e-14,64.6731 L5.654,49.1211 L53.152,1.6221 C55.029,-0.2539 58.073,-0.2539 59.95,1.6241 L63.453,5.1261 C65.109,6.7821 65.109,9.4641 63.453,11.1201 L15.553,59.0201 Z" id="Stroke-29"></path>
                <path d="M5.6536,49.1207 L15.5526,59.0197" id="Stroke-31"></path>
                <path d="M48.7747,5.9996 L58.6737,15.8986" id="Stroke-33"></path>
            </g>
        </g>
    </g>
</svg>